<svg xmlns="http://www.w3.org/2000/svg" xmlns:xlink="http://www.w3.org/1999/xlink" width="500" zoomAndPan="magnify" viewBox="0 0 375 374.999991" height="500" preserveAspectRatio="xMidYMid meet" version="1.0"><defs><g/><clipPath id="face759d94"><path d="M 187.5 0 C 83.945312 0 0 83.945312 0 187.5 C 0 291.054688 83.945312 375 187.5 375 C 291.054688 375 375 291.054688 375 187.5 C 375 83.945312 291.054688 0 187.5 0 Z M 187.5 0 " clip-rule="nonzero"/></clipPath><clipPath id="1d9dc3d4ff"><path d="M 187.5 375 C 137.441406 375 90.304688 355.515625 54.929688 320.070312 C 19.484375 284.695312 0 237.558594 0 187.5 C 0 137.441406 19.484375 90.304688 54.929688 54.929688 C 90.304688 19.484375 137.441406 0 187.5 0 C 237.558594 0 284.695312 19.484375 320.070312 54.929688 C 355.515625 90.378906 375 137.441406 375 187.5 C 375 237.558594 355.515625 284.695312 320.070312 320.070312 C 284.695312 355.515625 237.558594 375 187.5 375 Z M 187.5 11.242188 C 140.4375 11.242188 96.148438 29.601562 62.875 62.875 C 29.601562 96.148438 11.242188 140.4375 11.242188 187.5 C 11.242188 234.5625 29.601562 278.851562 62.875 312.125 C 96.148438 345.398438 140.4375 363.757812 187.5 363.757812 C 234.5625 363.757812 278.851562 345.398438 312.125 312.125 C 345.398438 278.851562 363.757812 234.5625 363.757812 187.5 C 363.757812 140.4375 345.398438 96.148438 312.125 62.875 C 278.851562 29.601562 234.5625 11.242188 187.5 11.242188 Z M 187.5 11.242188 " clip-rule="nonzero"/></clipPath><clipPath id="a8202255b5"><path d="M 178.882812 24.738281 L 196.117188 24.738281 L 196.117188 41.96875 L 178.882812 41.96875 Z M 178.882812 24.738281 " clip-rule="nonzero"/></clipPath><clipPath id="d59bc34277"><path d="M 187.5 24.738281 C 182.742188 24.738281 178.882812 28.597656 178.882812 33.355469 C 178.882812 38.113281 182.742188 41.96875 187.5 41.96875 C 192.257812 41.96875 196.117188 38.113281 196.117188 33.355469 C 196.117188 28.597656 192.257812 24.738281 187.5 24.738281 Z M 187.5 24.738281 " clip-rule="nonzero"/></clipPath><clipPath id="477522f9db"><path d="M 31.433594 120.734375 L 343.203125 120.734375 L 343.203125 253.726562 L 31.433594 253.726562 Z M 31.433594 120.734375 " clip-rule="nonzero"/></clipPath><clipPath id="4b16236420"><path d="M 221 145 L 273.933594 145 L 273.933594 232 L 221 232 Z M 221 145 " clip-rule="nonzero"/></clipPath><clipPath id="ad0e5d3dbc"><path d="M 162 127 L 214 127 L 214 248.765625 L 162 248.765625 Z M 162 127 " clip-rule="nonzero"/></clipPath><clipPath id="f11011d16a"><path d="M 52 261 L 86 261 L 86 298 L 52 298 Z M 52 261 " clip-rule="nonzero"/></clipPath><clipPath id="692d45ba69"><path d="M 74.070312 256.246094 L 92.929688 281.617188 L 64.0625 303.082031 L 45.199219 277.710938 Z M 74.070312 256.246094 " clip-rule="nonzero"/></clipPath><clipPath id="4a3e412e4f"><path d="M 74.070312 256.246094 L 92.929688 281.617188 L 64.0625 303.082031 L 45.199219 277.710938 Z M 74.070312 256.246094 " clip-rule="nonzero"/></clipPath><clipPath id="390e1c2716"><path d="M 81 293 L 118 293 L 118 327 L 81 327 Z M 81 293 " clip-rule="nonzero"/></clipPath><clipPath id="13a75de305"><path d="M 96.683594 286.09375 L 122.4375 304.425781 L 101.578125 333.734375 L 75.820312 315.402344 Z M 96.683594 286.09375 " clip-rule="nonzero"/></clipPath><clipPath id="07a6c231a9"><path d="M 96.683594 286.09375 L 122.4375 304.425781 L 101.578125 333.734375 L 75.820312 315.402344 Z M 96.683594 286.09375 " clip-rule="nonzero"/></clipPath><clipPath id="a542b90ac2"><path d="M 256 294 L 293 294 L 293 329 L 256 329 Z M 256 294 " clip-rule="nonzero"/></clipPath><clipPath id="0362079418"><path d="M 250.925781 306.316406 L 276.371094 287.558594 L 297.71875 316.511719 L 272.277344 335.273438 Z M 250.925781 306.316406 " clip-rule="nonzero"/></clipPath><clipPath id="54e6602cf5"><path d="M 250.925781 306.316406 L 276.371094 287.558594 L 297.71875 316.511719 L 272.277344 335.273438 Z M 250.925781 306.316406 " clip-rule="nonzero"/></clipPath><clipPath id="d4b6ae3036"><path d="M 288 263 L 323 263 L 323 300 L 288 300 Z M 288 263 " clip-rule="nonzero"/></clipPath><clipPath id="adf7b2f793"><path d="M 281.601562 281.433594 L 302.488281 257.699219 L 329.492188 281.46875 L 308.605469 305.199219 Z M 281.601562 281.433594 " clip-rule="nonzero"/></clipPath><clipPath id="3de95875b3"><path d="M 281.601562 281.433594 L 302.488281 257.699219 L 329.492188 281.46875 L 308.605469 305.199219 Z M 281.601562 281.433594 " clip-rule="nonzero"/></clipPath></defs><g clip-path="url(#face759d94)"><rect x="-37.5" width="450" fill="#ffffff" y="-37.499999" height="449.999989" fill-opacity="1"/></g><g clip-path="url(#1d9dc3d4ff)"><rect x="-37.5" width="450" fill="#001219" y="-37.499999" height="449.999989" fill-opacity="1"/></g><g fill="#001219" fill-opacity="1"><g transform="translate(71.500368, 100.38671)"><g><path d="M -6.90625 -21.53125 C -5.9375 -22.644531 -4.847656 -23.492188 -3.640625 -24.078125 C -2.429688 -24.671875 -1.203125 -25.007812 0.046875 -25.09375 C 1.304688 -25.1875 2.550781 -25.03125 3.78125 -24.625 C 5.007812 -24.21875 6.132812 -23.5625 7.15625 -22.65625 L 7.1875 -22.625 C 8.21875 -21.726562 9.007812 -20.691406 9.5625 -19.515625 C 10.125 -18.347656 10.441406 -17.128906 10.515625 -15.859375 C 10.597656 -14.585938 10.421875 -13.3125 9.984375 -12.03125 C 9.554688 -10.757812 8.859375 -9.570312 7.890625 -8.46875 C 6.921875 -7.363281 5.828125 -6.515625 4.609375 -5.921875 C 3.398438 -5.335938 2.164062 -5 0.90625 -4.90625 C -0.34375 -4.8125 -1.578125 -4.96875 -2.796875 -5.375 C -4.015625 -5.78125 -5.140625 -6.4375 -6.171875 -7.34375 L -6.21875 -7.375 C -7.238281 -8.28125 -8.023438 -9.316406 -8.578125 -10.484375 C -9.140625 -11.660156 -9.457031 -12.882812 -9.53125 -14.15625 C -9.613281 -15.425781 -9.4375 -16.695312 -9 -17.96875 C -8.570312 -19.238281 -7.875 -20.425781 -6.90625 -21.53125 Z M 5.015625 -11.0625 C 5.578125 -11.707031 5.972656 -12.394531 6.203125 -13.125 C 6.429688 -13.851562 6.503906 -14.582031 6.421875 -15.3125 C 6.335938 -16.050781 6.117188 -16.765625 5.765625 -17.453125 C 5.421875 -18.140625 4.941406 -18.753906 4.328125 -19.296875 L 4.28125 -19.328125 C 3.675781 -19.867188 3.003906 -20.269531 2.265625 -20.53125 C 1.523438 -20.800781 0.78125 -20.921875 0.03125 -20.890625 C -0.71875 -20.867188 -1.441406 -20.695312 -2.140625 -20.375 C -2.835938 -20.0625 -3.46875 -19.585938 -4.03125 -18.953125 C -4.582031 -18.328125 -4.976562 -17.640625 -5.21875 -16.890625 C -5.457031 -16.148438 -5.535156 -15.414062 -5.453125 -14.6875 C -5.367188 -13.957031 -5.148438 -13.25 -4.796875 -12.5625 C -4.453125 -11.875 -3.972656 -11.253906 -3.359375 -10.703125 L -3.328125 -10.671875 C -2.710938 -10.128906 -2.035156 -9.726562 -1.296875 -9.46875 C -0.554688 -9.207031 0.1875 -9.085938 0.9375 -9.109375 C 1.6875 -9.140625 2.414062 -9.316406 3.125 -9.640625 C 3.832031 -9.960938 4.460938 -10.4375 5.015625 -11.0625 Z M 5.015625 -11.0625 "/></g></g></g><g fill="#001219" fill-opacity="1"><g transform="translate(89.737516, 80.459819)"><g><path d="M -8.890625 -14.65625 C -9.253906 -15.101562 -9.40625 -15.613281 -9.34375 -16.1875 C -9.28125 -16.757812 -9.019531 -17.234375 -8.5625 -17.609375 L -4.125 -21.1875 C -3.238281 -21.90625 -2.347656 -22.421875 -1.453125 -22.734375 C -0.554688 -23.054688 0.316406 -23.1875 1.171875 -23.125 C 2.023438 -23.070312 2.835938 -22.832031 3.609375 -22.40625 C 4.378906 -21.988281 5.070312 -21.398438 5.6875 -20.640625 L 5.71875 -20.59375 C 6.414062 -19.726562 6.875 -18.847656 7.09375 -17.953125 C 7.3125 -17.054688 7.320312 -16.171875 7.125 -15.296875 C 6.9375 -14.421875 6.566406 -13.578125 6.015625 -12.765625 C 5.460938 -11.953125 4.769531 -11.207031 3.9375 -10.53125 L 1.453125 -8.53125 L 3.828125 -5.578125 C 4.191406 -5.128906 4.34375 -4.617188 4.28125 -4.046875 C 4.21875 -3.472656 3.960938 -3.003906 3.515625 -2.640625 C 3.054688 -2.265625 2.539062 -2.109375 1.96875 -2.171875 C 1.394531 -2.234375 0.925781 -2.488281 0.5625 -2.9375 Z M -0.90625 -11.4375 L 1.6875 -13.53125 C 2.5 -14.1875 2.957031 -14.910156 3.0625 -15.703125 C 3.175781 -16.503906 2.976562 -17.222656 2.46875 -17.859375 L 2.421875 -17.90625 C 1.828125 -18.644531 1.140625 -19.015625 0.359375 -19.015625 C -0.421875 -19.015625 -1.21875 -18.679688 -2.03125 -18.015625 L -4.5625 -15.984375 Z M -0.90625 -11.4375 "/></g></g></g><g fill="#001219" fill-opacity="1"><g transform="translate(107.20675, 66.745367)"><g><path d="M 0.9375 -2.96875 L -6.53125 -15.859375 C -6.820312 -16.359375 -6.890625 -16.882812 -6.734375 -17.4375 C -6.585938 -18 -6.265625 -18.425781 -5.765625 -18.71875 L 3.390625 -24.015625 C 3.847656 -24.285156 4.320312 -24.351562 4.8125 -24.21875 C 5.3125 -24.082031 5.691406 -23.785156 5.953125 -23.328125 C 6.222656 -22.867188 6.289062 -22.394531 6.15625 -21.90625 C 6.019531 -21.425781 5.722656 -21.050781 5.265625 -20.78125 L -2.09375 -16.515625 L -0.15625 -13.171875 L 6.140625 -16.828125 C 6.597656 -17.085938 7.070312 -17.148438 7.5625 -17.015625 C 8.0625 -16.878906 8.441406 -16.582031 8.703125 -16.125 C 8.960938 -15.675781 9.023438 -15.207031 8.890625 -14.71875 C 8.753906 -14.226562 8.457031 -13.851562 8 -13.59375 L 1.703125 -9.9375 L 3.71875 -6.46875 L 11.203125 -10.8125 C 11.648438 -11.070312 12.125 -11.132812 12.625 -11 C 13.125 -10.863281 13.503906 -10.570312 13.765625 -10.125 C 14.035156 -9.664062 14.097656 -9.191406 13.953125 -8.703125 C 13.816406 -8.210938 13.523438 -7.835938 13.078125 -7.578125 L 3.796875 -2.203125 C 3.296875 -1.910156 2.765625 -1.835938 2.203125 -1.984375 C 1.640625 -2.140625 1.21875 -2.46875 0.9375 -2.96875 Z M 0.9375 -2.96875 "/></g></g></g><g fill="#001219" fill-opacity="1"><g transform="translate(126.491357, 55.797541)"><g><path d="M 1.484375 -2.59375 L -3.859375 -16.8125 C -4.066406 -17.351562 -4.050781 -17.882812 -3.8125 -18.40625 C -3.570312 -18.925781 -3.179688 -19.289062 -2.640625 -19.5 L -2.234375 -19.65625 C -1.753906 -19.832031 -1.320312 -19.875 -0.9375 -19.78125 C -0.550781 -19.6875 -0.164062 -19.519531 0.21875 -19.28125 L 11.5625 -12.171875 L 8.09375 -21.390625 C 7.882812 -21.929688 7.894531 -22.460938 8.125 -22.984375 C 8.363281 -23.503906 8.753906 -23.863281 9.296875 -24.0625 C 9.835938 -24.269531 10.363281 -24.253906 10.875 -24.015625 C 11.394531 -23.785156 11.757812 -23.398438 11.96875 -22.859375 L 17.3125 -8.640625 C 17.519531 -8.097656 17.5 -7.5625 17.25 -7.03125 C 17.007812 -6.5 16.625 -6.132812 16.09375 -5.9375 L 15.953125 -5.875 C 15.472656 -5.695312 15.039062 -5.660156 14.65625 -5.765625 C 14.269531 -5.867188 13.878906 -6.035156 13.484375 -6.265625 L 1.75 -13.625 L 5.359375 -4.046875 C 5.566406 -3.503906 5.550781 -2.976562 5.3125 -2.46875 C 5.082031 -1.957031 4.691406 -1.597656 4.140625 -1.390625 C 3.597656 -1.191406 3.070312 -1.207031 2.5625 -1.4375 C 2.050781 -1.664062 1.691406 -2.050781 1.484375 -2.59375 Z M 1.484375 -2.59375 "/></g></g></g><g fill="#001219" fill-opacity="1"><g transform="translate(150.799172, 47.420156)"><g/></g></g><g fill="#001219" fill-opacity="1"><g transform="translate(163.297659, 44.736512)"><g/></g></g><g fill="#001219" fill-opacity="1"><g transform="translate(175.984897, 43.171797)"><g/></g></g><g fill="#001219" fill-opacity="1"><g transform="translate(188.760886, 42.738339)"><g/></g></g><g fill="#001219" fill-opacity="1"><g transform="translate(201.525009, 43.439553)"><g/></g></g><g fill="#001219" fill-opacity="1"><g transform="translate(214.176642, 45.269921)"><g/></g></g><g fill="#001219" fill-opacity="1"><g transform="translate(226.352735, 47.836901)"><g><path d="M 17.265625 -14.421875 C 18.617188 -13.929688 19.707031 -13.363281 20.53125 -12.71875 C 21.363281 -12.070312 22.066406 -11.316406 22.640625 -10.453125 C 22.785156 -10.222656 22.882812 -9.941406 22.9375 -9.609375 C 22.988281 -9.285156 22.953125 -8.953125 22.828125 -8.609375 C 22.640625 -8.054688 22.289062 -7.660156 21.78125 -7.421875 C 21.269531 -7.191406 20.738281 -7.175781 20.1875 -7.375 C 19.925781 -7.46875 19.710938 -7.59375 19.546875 -7.75 C 19.390625 -7.914062 19.257812 -8.0625 19.15625 -8.1875 C 18.75 -8.789062 18.289062 -9.3125 17.78125 -9.75 C 17.28125 -10.195312 16.671875 -10.546875 15.953125 -10.796875 C 15.203125 -11.066406 14.445312 -11.171875 13.6875 -11.109375 C 12.9375 -11.046875 12.238281 -10.835938 11.59375 -10.484375 C 10.957031 -10.140625 10.390625 -9.675781 9.890625 -9.09375 C 9.390625 -8.507812 9 -7.832031 8.71875 -7.0625 L 8.703125 -7.015625 C 8.421875 -6.242188 8.289062 -5.46875 8.3125 -4.6875 C 8.332031 -3.914062 8.472656 -3.191406 8.734375 -2.515625 C 9.003906 -1.835938 9.40625 -1.234375 9.9375 -0.703125 C 10.476562 -0.179688 11.132812 0.21875 11.90625 0.5 C 12.738281 0.789062 13.5 0.925781 14.1875 0.90625 C 14.882812 0.882812 15.59375 0.742188 16.3125 0.484375 C 16.757812 0.328125 17.203125 0.328125 17.640625 0.484375 C 18.140625 0.660156 18.507812 0.992188 18.75 1.484375 C 18.988281 1.972656 19.019531 2.460938 18.84375 2.953125 C 18.726562 3.273438 18.566406 3.519531 18.359375 3.6875 C 18.148438 3.863281 17.914062 4.007812 17.65625 4.125 C 16.613281 4.570312 15.515625 4.8125 14.359375 4.84375 C 13.210938 4.875 11.914062 4.628906 10.46875 4.109375 C 9.15625 3.628906 8.015625 2.945312 7.046875 2.0625 C 6.085938 1.175781 5.347656 0.171875 4.828125 -0.953125 C 4.304688 -2.078125 4.015625 -3.285156 3.953125 -4.578125 C 3.898438 -5.867188 4.101562 -7.15625 4.5625 -8.4375 L 4.578125 -8.5 C 5.035156 -9.78125 5.695312 -10.894531 6.5625 -11.84375 C 7.425781 -12.800781 8.421875 -13.554688 9.546875 -14.109375 C 10.671875 -14.671875 11.894531 -14.988281 13.21875 -15.0625 C 14.539062 -15.132812 15.890625 -14.921875 17.265625 -14.421875 Z M 17.265625 -14.421875 "/></g></g></g><g fill="#001219" fill-opacity="1"><g transform="translate(248.811798, 56.097716)"><g><path d="M 19.734375 -11.046875 C 21.015625 -10.316406 22.0625 -9.421875 22.875 -8.359375 C 23.6875 -7.304688 24.265625 -6.171875 24.609375 -4.953125 C 24.953125 -3.742188 25.046875 -2.492188 24.890625 -1.203125 C 24.734375 0.078125 24.3125 1.304688 23.625 2.484375 L 23.609375 2.53125 C 22.929688 3.71875 22.070312 4.695312 21.03125 5.46875 C 20 6.25 18.867188 6.800781 17.640625 7.125 C 16.410156 7.457031 15.125 7.539062 13.78125 7.375 C 12.445312 7.207031 11.144531 6.757812 9.875 6.03125 C 8.601562 5.300781 7.554688 4.398438 6.734375 3.328125 C 5.910156 2.265625 5.328125 1.128906 4.984375 -0.078125 C 4.640625 -1.285156 4.546875 -2.53125 4.703125 -3.8125 C 4.867188 -5.09375 5.289062 -6.328125 5.96875 -7.515625 L 6 -7.5625 C 6.675781 -8.75 7.53125 -9.726562 8.5625 -10.5 C 9.601562 -11.269531 10.738281 -11.820312 11.96875 -12.15625 C 13.195312 -12.5 14.476562 -12.582031 15.8125 -12.40625 C 17.144531 -12.238281 18.453125 -11.785156 19.734375 -11.046875 Z M 11.84375 2.703125 C 12.582031 3.117188 13.332031 3.367188 14.09375 3.453125 C 14.851562 3.546875 15.585938 3.476562 16.296875 3.25 C 17.003906 3.019531 17.65625 2.660156 18.25 2.171875 C 18.851562 1.691406 19.359375 1.097656 19.765625 0.390625 L 19.796875 0.34375 C 20.203125 -0.363281 20.460938 -1.101562 20.578125 -1.875 C 20.691406 -2.644531 20.660156 -3.394531 20.484375 -4.125 C 20.304688 -4.851562 19.992188 -5.53125 19.546875 -6.15625 C 19.097656 -6.78125 18.503906 -7.304688 17.765625 -7.734375 C 17.046875 -8.148438 16.296875 -8.398438 15.515625 -8.484375 C 14.742188 -8.566406 14.003906 -8.492188 13.296875 -8.265625 C 12.597656 -8.046875 11.945312 -7.691406 11.34375 -7.203125 C 10.75 -6.722656 10.242188 -6.128906 9.828125 -5.421875 L 9.8125 -5.375 C 9.40625 -4.65625 9.140625 -3.910156 9.015625 -3.140625 C 8.898438 -2.378906 8.929688 -1.632812 9.109375 -0.90625 C 9.285156 -0.175781 9.601562 0.5 10.0625 1.125 C 10.519531 1.757812 11.113281 2.285156 11.84375 2.703125 Z M 11.84375 2.703125 "/></g></g></g><g fill="#001219" fill-opacity="1"><g transform="translate(271.961882, 69.860424)"><g><path d="M 12.703125 -11.5 C 13.078125 -11.9375 13.550781 -12.179688 14.125 -12.234375 C 14.707031 -12.285156 15.222656 -12.125 15.671875 -11.75 L 19.75 -8.296875 C 20.90625 -7.328125 21.796875 -6.257812 22.421875 -5.09375 C 23.054688 -3.9375 23.441406 -2.738281 23.578125 -1.5 C 23.710938 -0.257812 23.59375 0.953125 23.21875 2.140625 C 22.851562 3.335938 22.238281 4.453125 21.375 5.484375 L 21.34375 5.515625 C 20.476562 6.546875 19.476562 7.347656 18.34375 7.921875 C 17.21875 8.503906 16.035156 8.828125 14.796875 8.890625 C 13.566406 8.960938 12.320312 8.785156 11.0625 8.359375 C 9.800781 7.941406 8.59375 7.25 7.4375 6.28125 L 3.359375 2.828125 C 2.910156 2.453125 2.660156 1.976562 2.609375 1.40625 C 2.566406 0.832031 2.726562 0.328125 3.09375 -0.109375 Z M 9.890625 3.375 C 10.546875 3.925781 11.226562 4.328125 11.9375 4.578125 C 12.65625 4.828125 13.367188 4.914062 14.078125 4.84375 C 14.785156 4.78125 15.472656 4.570312 16.140625 4.21875 C 16.804688 3.863281 17.410156 3.367188 17.953125 2.734375 L 17.984375 2.6875 C 18.535156 2.03125 18.925781 1.34375 19.15625 0.625 C 19.394531 -0.0820312 19.488281 -0.789062 19.4375 -1.5 C 19.394531 -2.21875 19.191406 -2.910156 18.828125 -3.578125 C 18.460938 -4.242188 17.953125 -4.851562 17.296875 -5.40625 L 14.8125 -7.5 L 7.40625 1.28125 Z M 9.890625 3.375 "/></g></g></g><g fill="#001219" fill-opacity="1"><g transform="translate(290.937699, 86.470059)"><g><path d="M 3.078125 0.390625 L 14.421875 -9.265625 C 14.859375 -9.640625 15.363281 -9.804688 15.9375 -9.765625 C 16.519531 -9.722656 17 -9.476562 17.375 -9.03125 L 24.234375 -0.984375 C 24.578125 -0.578125 24.726562 -0.117188 24.6875 0.390625 C 24.644531 0.898438 24.421875 1.328125 24.015625 1.671875 C 23.609375 2.015625 23.15625 2.160156 22.65625 2.109375 C 22.15625 2.066406 21.734375 1.84375 21.390625 1.4375 L 15.875 -5.03125 L 12.9375 -2.515625 L 17.65625 3.015625 C 18 3.421875 18.144531 3.878906 18.09375 4.390625 C 18.050781 4.898438 17.832031 5.328125 17.4375 5.671875 C 17.03125 6.003906 16.578125 6.144531 16.078125 6.09375 C 15.578125 6.050781 15.15625 5.828125 14.8125 5.421875 L 10.09375 -0.109375 L 7.03125 2.5 L 12.640625 9.078125 C 12.972656 9.472656 13.117188 9.925781 13.078125 10.4375 C 13.046875 10.957031 12.832031 11.390625 12.4375 11.734375 C 12.03125 12.078125 11.570312 12.222656 11.0625 12.171875 C 10.550781 12.117188 10.128906 11.894531 9.796875 11.5 L 2.84375 3.34375 C 2.46875 2.894531 2.300781 2.382812 2.34375 1.8125 C 2.394531 1.238281 2.640625 0.765625 3.078125 0.390625 Z M 3.078125 0.390625 "/></g></g></g><g clip-path="url(#a8202255b5)"><g clip-path="url(#d59bc34277)"><path fill="#41b6e6" d="M 178.882812 24.738281 L 196.117188 24.738281 L 196.117188 41.96875 L 178.882812 41.96875 Z M 178.882812 24.738281 " fill-opacity="1" fill-rule="nonzero"/></g></g><g clip-path="url(#477522f9db)"><path fill="#001219" d="M 333.90625 223.511719 C 329.949219 236.984375 323.90625 249.761719 316.410156 261.535156 C 310.21875 271.113281 303.183594 280.117188 295.273438 288.308594 C 294.25 289.425781 293.109375 290.425781 292.023438 291.484375 C 290.917969 292.519531 289.84375 293.59375 288.71875 294.601562 L 283.574219 299.078125 L 281.796875 300.488281 L 278.246094 303.328125 C 277.042969 304.246094 275.800781 305.117188 274.582031 306.015625 C 272.175781 307.859375 269.613281 309.480469 267.105469 311.1875 C 266.742188 311.429688 266.363281 311.683594 265.96875 311.949219 C 265.558594 312.195312 265.132812 312.453125 264.691406 312.71875 C 263.804688 313.246094 262.851562 313.816406 261.839844 314.421875 C 259.835938 315.683594 257.464844 316.867188 254.90625 318.226562 C 254.261719 318.558594 253.617188 318.921875 252.933594 319.246094 C 252.25 319.566406 251.554688 319.890625 250.839844 320.21875 C 249.417969 320.878906 247.945312 321.558594 246.421875 322.261719 C 243.304688 323.480469 240.054688 324.945312 236.507812 326.082031 C 222.503906 331.15625 205.03125 334.296875 187.496094 334.367188 C 169.964844 334.296875 152.488281 331.15625 138.488281 326.082031 C 134.941406 324.945312 131.691406 323.480469 128.570312 322.261719 C 127.050781 321.558594 125.578125 320.878906 124.15625 320.21875 C 123.441406 319.890625 122.746094 319.566406 122.058594 319.25 C 121.378906 318.921875 120.734375 318.558594 120.089844 318.226562 C 117.53125 316.867188 115.160156 315.683594 113.15625 314.425781 C 112.144531 313.816406 111.191406 313.246094 110.304688 312.71875 C 109.863281 312.453125 109.4375 312.199219 109.027344 311.949219 C 108.632812 311.6875 108.253906 311.429688 107.890625 311.1875 C 98.367188 304.945312 89.414062 297.855469 81.28125 289.886719 C 72.699219 281.316406 65.199219 271.71875 58.585938 261.535156 C 51.085938 249.765625 45.046875 236.984375 41.085938 223.511719 C 36.96875 210.082031 35.0625 195.992188 34.941406 181.898438 C 35.0625 167.804688 36.96875 153.714844 41.085938 140.285156 C 45.046875 126.8125 51.085938 114.03125 58.585938 102.261719 C 64.773438 92.679688 71.8125 83.675781 79.722656 75.488281 C 80.746094 74.371094 81.886719 73.367188 82.972656 72.3125 C 84.078125 71.273438 85.148438 70.203125 86.277344 69.191406 L 89.707031 66.210938 L 91.417969 64.71875 L 93.199219 63.304688 L 96.75 60.46875 C 97.953125 59.550781 99.191406 58.679688 100.410156 57.777344 C 102.820312 55.9375 105.382812 54.316406 107.890625 52.609375 C 108.25 52.367188 108.632812 52.113281 109.027344 51.84375 C 109.4375 51.597656 109.859375 51.34375 110.304688 51.078125 C 111.1875 50.546875 112.140625 49.976562 113.15625 49.375 C 115.160156 48.113281 117.53125 46.929688 120.089844 45.566406 C 120.734375 45.234375 121.378906 44.875 122.058594 44.546875 C 122.746094 44.230469 123.441406 43.90625 124.152344 43.574219 C 125.578125 42.917969 127.050781 42.238281 128.570312 41.535156 C 131.691406 40.316406 134.941406 38.851562 138.488281 37.714844 C 152.488281 32.640625 169.960938 29.5 187.496094 29.425781 C 205.03125 29.5 222.503906 32.640625 236.503906 37.714844 C 240.054688 38.851562 243.304688 40.316406 246.421875 41.535156 C 247.945312 42.238281 249.417969 42.917969 250.839844 43.574219 C 251.550781 43.90625 252.25 44.230469 252.933594 44.546875 C 253.613281 44.871094 254.257812 45.234375 254.902344 45.566406 C 257.460938 46.925781 259.835938 48.113281 261.835938 49.371094 C 262.851562 49.976562 263.804688 50.546875 264.6875 51.078125 C 265.132812 51.34375 265.558594 51.597656 265.964844 51.84375 C 266.363281 52.109375 266.742188 52.367188 267.101562 52.609375 C 276.628906 58.851562 285.578125 65.941406 293.714844 73.90625 C 302.292969 82.476562 309.792969 92.078125 316.410156 102.257812 C 323.90625 114.03125 329.949219 126.8125 333.90625 140.285156 C 338.027344 153.714844 339.933594 167.804688 340.054688 181.898438 C 339.933594 195.992188 338.027344 210.082031 333.90625 223.511719 Z M 343.5625 181.792969 L 343.558594 181.78125 C 343.429688 167.390625 341.496094 152.992188 337.300781 139.265625 C 333.269531 125.492188 327.09375 112.421875 319.398438 100.414062 L 315.695312 94.851562 C 315.695312 94.851562 314.625 93.355469 313.023438 91.113281 C 311.476562 88.820312 309.113281 86 306.855469 83.097656 C 304.421875 80.34375 302.089844 77.496094 300.128906 75.558594 C 298.222656 73.566406 296.949219 72.242188 296.949219 72.242188 C 296.949219 72.242188 296.628906 71.914062 296.050781 71.355469 C 295.472656 70.800781 294.648438 70 293.65625 69.042969 C 291.722656 67.074219 288.917969 64.703125 286.164062 62.265625 C 284.75 61.09375 283.296875 59.96875 281.957031 58.890625 C 281.28125 58.351562 280.628906 57.835938 280.011719 57.34375 C 279.371094 56.882812 278.765625 56.445312 278.207031 56.042969 C 275.972656 54.429688 274.480469 53.355469 274.480469 53.355469 C 274.480469 53.355469 274.15625 53.089844 273.632812 52.75 C 273.113281 52.402344 272.417969 51.9375 271.726562 51.472656 C 270.339844 50.546875 268.953125 49.617188 268.953125 49.617188 C 268.582031 49.367188 268.195312 49.105469 267.792969 48.832031 C 267.375 48.578125 266.941406 48.316406 266.488281 48.042969 C 265.582031 47.5 264.609375 46.914062 263.574219 46.292969 C 261.523438 45.003906 259.101562 43.785156 256.484375 42.390625 C 255.824219 42.046875 255.164062 41.675781 254.46875 41.34375 C 253.765625 41.015625 253.054688 40.683594 252.328125 40.34375 C 250.871094 39.667969 249.363281 38.972656 247.804688 38.25 C 244.617188 36.996094 241.289062 35.5 237.660156 34.332031 C 223.332031 29.128906 205.4375 25.902344 187.496094 25.832031 C 169.554688 25.902344 151.664062 29.128906 137.335938 34.332031 C 133.707031 35.5 130.378906 36.996094 127.1875 38.25 C 125.628906 38.972656 124.125 39.667969 122.667969 40.34375 C 121.941406 40.683594 121.226562 41.015625 120.527344 41.34375 C 119.828125 41.675781 119.167969 42.046875 118.511719 42.390625 C 115.890625 43.785156 113.46875 45.003906 111.421875 46.292969 C 110.382812 46.914062 109.410156 47.5 108.503906 48.042969 C 108.054688 48.316406 107.617188 48.582031 107.203125 48.832031 C 106.796875 49.109375 106.410156 49.367188 106.039062 49.617188 C 106.039062 49.617188 104.652344 50.546875 103.265625 51.472656 C 102.574219 51.9375 101.882812 52.402344 101.363281 52.75 C 100.835938 53.089844 100.511719 53.355469 100.511719 53.355469 C 100.511719 53.355469 99.023438 54.429688 96.789062 56.042969 C 96.226562 56.445312 95.621094 56.882812 94.984375 57.34375 C 94.363281 57.835938 93.714844 58.351562 93.039062 58.890625 C 91.695312 59.96875 90.242188 61.09375 88.832031 62.265625 C 86.078125 64.703125 83.273438 67.074219 81.339844 69.042969 C 80.347656 70 79.523438 70.800781 78.945312 71.355469 C 78.363281 71.914062 78.042969 72.242188 78.042969 72.242188 C 78.042969 72.242188 76.773438 73.566406 74.867188 75.558594 C 72.90625 77.496094 70.570312 80.34375 68.140625 83.097656 C 65.882812 86 63.515625 88.824219 61.972656 91.113281 C 60.367188 93.355469 59.296875 94.851562 59.296875 94.851562 L 55.597656 100.414062 C 47.898438 112.421875 41.722656 125.492188 37.691406 139.265625 C 33.5 152.996094 31.5625 167.394531 31.4375 181.78125 L 31.433594 181.792969 L 31.433594 182 L 31.4375 182.015625 C 31.5625 196.402344 33.5 210.804688 37.691406 224.53125 C 41.722656 238.304688 47.898438 251.375 55.597656 263.382812 L 59.296875 268.941406 C 59.296875 268.941406 60.367188 270.441406 61.972656 272.683594 C 63.515625 274.972656 65.882812 277.796875 68.140625 280.699219 C 70.570312 283.453125 72.90625 286.296875 74.867188 288.238281 C 76.773438 290.226562 78.042969 291.554688 78.042969 291.554688 C 78.042969 291.554688 78.363281 291.882812 78.945312 292.4375 C 79.523438 292.996094 80.347656 293.796875 81.339844 294.753906 C 83.273438 296.722656 86.078125 299.09375 88.832031 301.527344 C 90.242188 302.703125 91.695312 303.828125 93.039062 304.90625 C 93.714844 305.441406 94.363281 305.960938 94.984375 306.453125 C 95.621094 306.914062 96.226562 307.351562 96.789062 307.753906 C 99.023438 309.367188 100.511719 310.441406 100.511719 310.441406 C 100.511719 310.441406 100.835938 310.707031 101.363281 311.042969 C 101.882812 311.394531 102.574219 311.855469 103.265625 312.320312 C 104.652344 313.25 106.039062 314.175781 106.039062 314.175781 C 106.410156 314.425781 106.796875 314.6875 107.203125 314.960938 C 107.621094 315.214844 108.054688 315.476562 108.507812 315.75 C 109.410156 316.296875 110.386719 316.878906 111.421875 317.503906 C 113.46875 318.792969 115.894531 320.011719 118.511719 321.40625 C 119.171875 321.75 119.832031 322.121094 120.527344 322.453125 C 121.226562 322.78125 121.941406 323.113281 122.667969 323.453125 C 124.125 324.125 125.632812 324.824219 127.1875 325.546875 C 130.378906 326.800781 133.707031 328.292969 137.335938 329.464844 C 151.664062 334.667969 169.554688 337.890625 187.496094 337.960938 C 205.4375 337.890625 223.332031 334.667969 237.660156 329.460938 C 241.289062 328.292969 244.617188 326.796875 247.808594 325.546875 C 249.363281 324.824219 250.871094 324.125 252.328125 323.449219 C 253.054688 323.113281 253.769531 322.78125 254.46875 322.453125 C 255.164062 322.121094 255.824219 321.75 256.484375 321.40625 C 259.101562 320.011719 261.527344 318.792969 263.574219 317.503906 C 264.609375 316.878906 265.582031 316.292969 266.488281 315.75 C 266.941406 315.476562 267.375 315.214844 267.792969 314.960938 C 268.199219 314.6875 268.585938 314.425781 268.957031 314.175781 C 268.957031 314.175781 270.339844 313.25 271.726562 312.320312 C 272.421875 311.855469 273.113281 311.394531 273.632812 311.042969 C 274.15625 310.707031 274.480469 310.441406 274.480469 310.441406 C 274.480469 310.441406 275.972656 309.367188 278.207031 307.753906 C 278.765625 307.351562 279.371094 306.914062 280.011719 306.453125 C 280.628906 305.960938 281.28125 305.441406 281.957031 304.90625 C 283.296875 303.828125 284.75 302.703125 286.164062 301.527344 C 288.917969 299.09375 291.722656 296.722656 293.65625 294.753906 C 294.648438 293.796875 295.472656 292.996094 296.050781 292.4375 C 296.628906 291.882812 296.949219 291.554688 296.949219 291.554688 C 296.949219 291.554688 298.222656 290.226562 300.128906 288.238281 C 302.089844 286.296875 304.421875 283.453125 306.855469 280.699219 C 309.113281 277.796875 311.480469 274.972656 313.023438 272.683594 C 314.628906 270.4375 315.695312 268.941406 315.695312 268.941406 L 319.398438 263.382812 C 327.09375 251.375 333.269531 238.300781 337.300781 224.53125 C 341.496094 210.800781 343.429688 196.402344 343.558594 182.011719 L 343.5625 182 L 343.5625 181.792969 " fill-opacity="1" fill-rule="nonzero"/></g><path fill="#001219" d="M 144.664062 231.191406 C 142.09375 231.191406 140.382812 230.332031 138.667969 228.621094 L 104.402344 194.351562 C 100.972656 190.925781 100.972656 185.785156 104.402344 182.359375 L 138.667969 148.089844 C 142.09375 144.664062 147.234375 144.664062 150.664062 148.089844 C 154.089844 151.519531 154.089844 156.660156 150.664062 160.085938 L 122.390625 188.355469 L 150.664062 216.625 C 154.089844 220.054688 154.089844 225.191406 150.664062 228.621094 C 148.949219 230.332031 147.234375 231.191406 144.664062 231.191406 Z M 144.664062 231.191406 " fill-opacity="1" fill-rule="nonzero"/><g clip-path="url(#4b16236420)"><path fill="#001219" d="M 230.335938 231.191406 C 227.765625 231.191406 226.050781 230.332031 224.335938 228.621094 C 220.910156 225.191406 220.910156 220.054688 224.335938 216.625 L 252.609375 188.355469 L 224.335938 160.085938 C 220.910156 156.660156 220.910156 151.519531 224.335938 148.089844 C 227.765625 144.664062 232.90625 144.664062 236.332031 148.089844 L 270.597656 182.359375 C 274.023438 185.785156 274.023438 190.925781 270.597656 194.351562 L 236.332031 228.621094 C 234.617188 230.332031 232.90625 231.191406 230.335938 231.191406 Z M 230.335938 231.191406 " fill-opacity="1" fill-rule="nonzero"/></g><g clip-path="url(#ad0e5d3dbc)"><path fill="#001219" d="M 170.367188 248.324219 C 169.507812 248.324219 168.652344 248.324219 167.796875 247.46875 C 163.511719 245.753906 160.941406 241.46875 162.65625 236.332031 L 196.921875 133.527344 C 198.636719 129.246094 202.921875 126.675781 208.058594 128.386719 C 212.34375 130.101562 214.914062 134.382812 213.199219 139.523438 L 178.933594 242.328125 C 177.21875 245.753906 173.792969 248.324219 170.367188 248.324219 Z M 170.367188 248.324219 " fill-opacity="1" fill-rule="nonzero"/></g><g fill="#41b6e6" fill-opacity="1"><g transform="translate(117.626483, 333.237232)"><g><path d="M 15.53125 -11.8125 C 16.675781 -11.34375 17.59375 -10.8125 18.28125 -10.21875 C 18.96875 -9.625 19.539062 -8.941406 20 -8.171875 C 20.125 -7.972656 20.203125 -7.726562 20.234375 -7.4375 C 20.265625 -7.144531 20.222656 -6.851562 20.109375 -6.5625 C 19.910156 -6.101562 19.585938 -5.78125 19.140625 -5.59375 C 18.703125 -5.414062 18.25 -5.425781 17.78125 -5.625 C 17.539062 -5.71875 17.359375 -5.832031 17.234375 -5.96875 C 17.109375 -6.101562 17 -6.226562 16.90625 -6.34375 C 16.570312 -6.882812 16.191406 -7.351562 15.765625 -7.75 C 15.347656 -8.15625 14.835938 -8.484375 14.234375 -8.734375 C 13.585938 -8.992188 12.9375 -9.109375 12.28125 -9.078125 C 11.632812 -9.046875 11.023438 -8.894531 10.453125 -8.625 C 9.878906 -8.351562 9.367188 -7.972656 8.921875 -7.484375 C 8.472656 -6.992188 8.113281 -6.421875 7.84375 -5.765625 L 7.828125 -5.71875 C 7.554688 -5.070312 7.40625 -4.410156 7.375 -3.734375 C 7.351562 -3.066406 7.441406 -2.429688 7.640625 -1.828125 C 7.847656 -1.234375 8.175781 -0.695312 8.625 -0.21875 C 9.070312 0.25 9.628906 0.617188 10.296875 0.890625 C 11.003906 1.179688 11.65625 1.332031 12.25 1.34375 C 12.851562 1.351562 13.46875 1.253906 14.09375 1.046875 C 14.488281 0.929688 14.875 0.953125 15.25 1.109375 C 15.675781 1.273438 15.984375 1.570312 16.171875 2 C 16.359375 2.4375 16.363281 2.867188 16.1875 3.296875 C 16.082031 3.554688 15.9375 3.753906 15.75 3.890625 C 15.5625 4.035156 15.351562 4.160156 15.125 4.265625 C 14.195312 4.617188 13.234375 4.78125 12.234375 4.75 C 11.242188 4.726562 10.128906 4.460938 8.890625 3.953125 C 7.773438 3.492188 6.816406 2.859375 6.015625 2.046875 C 5.222656 1.242188 4.625 0.347656 4.21875 -0.640625 C 3.8125 -1.628906 3.609375 -2.6875 3.609375 -3.8125 C 3.609375 -4.9375 3.832031 -6.046875 4.28125 -7.140625 L 4.296875 -7.171875 C 4.742188 -8.273438 5.359375 -9.222656 6.140625 -10.015625 C 6.929688 -10.804688 7.820312 -11.414062 8.8125 -11.84375 C 9.8125 -12.28125 10.882812 -12.503906 12.03125 -12.515625 C 13.1875 -12.535156 14.351562 -12.300781 15.53125 -11.8125 Z M 15.53125 -11.8125 "/></g></g></g><g fill="#41b6e6" fill-opacity="1"><g transform="translate(137.955157, 341.267651)"><g><path d="M 2.34375 -1.125 L 5.640625 -13.890625 C 5.765625 -14.367188 6.039062 -14.734375 6.46875 -14.984375 C 6.90625 -15.242188 7.363281 -15.3125 7.84375 -15.1875 C 8.34375 -15.0625 8.71875 -14.78125 8.96875 -14.34375 C 9.226562 -13.914062 9.296875 -13.460938 9.171875 -12.984375 L 7.953125 -8.28125 L 14.4375 -6.609375 L 15.65625 -11.3125 C 15.78125 -11.789062 16.054688 -12.15625 16.484375 -12.40625 C 16.921875 -12.664062 17.382812 -12.726562 17.875 -12.59375 C 18.363281 -12.46875 18.734375 -12.1875 18.984375 -11.75 C 19.242188 -11.320312 19.3125 -10.867188 19.1875 -10.390625 L 15.890625 2.375 C 15.765625 2.863281 15.484375 3.234375 15.046875 3.484375 C 14.617188 3.742188 14.160156 3.8125 13.671875 3.6875 C 13.179688 3.550781 12.804688 3.265625 12.546875 2.828125 C 12.296875 2.398438 12.234375 1.941406 12.359375 1.453125 L 13.59375 -3.34375 L 7.109375 -5.015625 L 5.875 -0.21875 C 5.75 0.269531 5.46875 0.640625 5.03125 0.890625 C 4.601562 1.148438 4.140625 1.21875 3.640625 1.09375 C 3.160156 0.96875 2.789062 0.6875 2.53125 0.25 C 2.28125 -0.175781 2.21875 -0.632812 2.34375 -1.125 Z M 2.34375 -1.125 "/></g></g></g><g fill="#41b6e6" fill-opacity="1"><g transform="translate(159.531457, 346.338394)"><g><path d="M 4.3125 -14.390625 C 4.382812 -14.878906 4.617188 -15.269531 5.015625 -15.5625 C 5.421875 -15.863281 5.867188 -15.976562 6.359375 -15.90625 C 6.859375 -15.832031 7.253906 -15.59375 7.546875 -15.1875 C 7.847656 -14.789062 7.960938 -14.347656 7.890625 -13.859375 L 5.96875 -0.8125 C 5.894531 -0.3125 5.65625 0.0820312 5.25 0.375 C 4.851562 0.675781 4.40625 0.789062 3.90625 0.71875 C 3.414062 0.644531 3.019531 0.40625 2.71875 0 C 2.425781 -0.394531 2.316406 -0.84375 2.390625 -1.34375 Z M 4.3125 -14.390625 "/></g></g></g><g fill="#41b6e6" fill-opacity="1"><g transform="translate(171.552315, 348.147094)"><g><path d="M 10.578125 -16.390625 C 11.816406 -16.335938 12.863281 -16.144531 13.71875 -15.8125 C 14.582031 -15.488281 15.359375 -15.039062 16.046875 -14.46875 C 16.222656 -14.320312 16.375 -14.117188 16.5 -13.859375 C 16.632812 -13.597656 16.695312 -13.3125 16.6875 -13 C 16.664062 -12.5 16.472656 -12.085938 16.109375 -11.765625 C 15.753906 -11.441406 15.320312 -11.289062 14.8125 -11.3125 C 14.5625 -11.320312 14.347656 -11.367188 14.171875 -11.453125 C 14.003906 -11.535156 13.863281 -11.617188 13.75 -11.703125 C 13.25 -12.109375 12.734375 -12.421875 12.203125 -12.640625 C 11.671875 -12.867188 11.078125 -13 10.421875 -13.03125 C 9.722656 -13.0625 9.078125 -12.953125 8.484375 -12.703125 C 7.890625 -12.460938 7.367188 -12.113281 6.921875 -11.65625 C 6.472656 -11.207031 6.117188 -10.675781 5.859375 -10.0625 C 5.597656 -9.445312 5.453125 -8.789062 5.421875 -8.09375 L 5.421875 -8.046875 C 5.390625 -7.335938 5.476562 -6.660156 5.6875 -6.015625 C 5.894531 -5.378906 6.195312 -4.816406 6.59375 -4.328125 C 6.988281 -3.835938 7.46875 -3.441406 8.03125 -3.140625 C 8.601562 -2.847656 9.25 -2.6875 9.96875 -2.65625 C 10.738281 -2.625 11.40625 -2.703125 11.96875 -2.890625 C 12.539062 -3.085938 13.085938 -3.390625 13.609375 -3.796875 C 13.941406 -4.046875 14.3125 -4.160156 14.71875 -4.140625 C 15.175781 -4.117188 15.566406 -3.9375 15.890625 -3.59375 C 16.210938 -3.25 16.363281 -2.847656 16.34375 -2.390625 C 16.332031 -2.109375 16.265625 -1.867188 16.140625 -1.671875 C 16.015625 -1.472656 15.859375 -1.289062 15.671875 -1.125 C 14.921875 -0.476562 14.070312 0 13.125 0.3125 C 12.175781 0.625 11.035156 0.753906 9.703125 0.703125 C 8.503906 0.648438 7.394531 0.378906 6.375 -0.109375 C 5.351562 -0.597656 4.476562 -1.238281 3.75 -2.03125 C 3.03125 -2.820312 2.476562 -3.75 2.09375 -4.8125 C 1.71875 -5.875 1.554688 -6.992188 1.609375 -8.171875 L 1.609375 -8.21875 C 1.660156 -9.394531 1.921875 -10.488281 2.390625 -11.5 C 2.859375 -12.507812 3.484375 -13.382812 4.265625 -14.125 C 5.054688 -14.875 5.988281 -15.453125 7.0625 -15.859375 C 8.144531 -16.265625 9.316406 -16.441406 10.578125 -16.390625 Z M 10.578125 -16.390625 "/></g></g></g><g fill="#41b6e6" fill-opacity="1"><g transform="translate(193.402802, 348.805455)"><g><path d="M 0.84375 -2.421875 L 5.359375 -15.9375 C 5.523438 -16.40625 5.769531 -16.78125 6.09375 -17.0625 C 6.425781 -17.34375 6.835938 -17.507812 7.328125 -17.5625 L 7.546875 -17.578125 C 8.046875 -17.617188 8.484375 -17.53125 8.859375 -17.3125 C 9.234375 -17.101562 9.539062 -16.785156 9.78125 -16.359375 L 16.734375 -3.921875 C 16.890625 -3.578125 16.972656 -3.34375 16.984375 -3.21875 C 17.035156 -2.726562 16.910156 -2.296875 16.609375 -1.921875 C 16.316406 -1.554688 15.929688 -1.351562 15.453125 -1.3125 C 15.023438 -1.269531 14.660156 -1.347656 14.359375 -1.546875 C 14.054688 -1.753906 13.796875 -2.035156 13.578125 -2.390625 L 12.234375 -4.875 L 4.984375 -4.1875 L 4.09375 -1.390625 C 3.96875 -1.015625 3.769531 -0.710938 3.5 -0.484375 C 3.226562 -0.265625 2.90625 -0.132812 2.53125 -0.09375 C 2.050781 -0.0507812 1.632812 -0.175781 1.28125 -0.46875 C 0.9375 -0.769531 0.742188 -1.160156 0.703125 -1.640625 C 0.691406 -1.765625 0.695312 -1.894531 0.71875 -2.03125 C 0.75 -2.164062 0.789062 -2.296875 0.84375 -2.421875 Z M 6.015625 -7.515625 L 10.59375 -7.953125 L 7.796875 -13.171875 Z M 6.015625 -7.515625 "/></g></g></g><g fill="#41b6e6" fill-opacity="1"><g transform="translate(215.819075, 346.398414)"><g><path d="M 5.75 -18.671875 C 6.96875 -18.960938 8.035156 -19.082031 8.953125 -19.03125 C 9.878906 -18.988281 10.765625 -18.78125 11.609375 -18.40625 C 11.804688 -18.332031 12.015625 -18.191406 12.234375 -17.984375 C 12.460938 -17.785156 12.617188 -17.507812 12.703125 -17.15625 C 12.816406 -16.664062 12.742188 -16.210938 12.484375 -15.796875 C 12.222656 -15.378906 11.851562 -15.113281 11.375 -15 C 11.101562 -14.9375 10.875 -14.921875 10.6875 -14.953125 C 10.5 -14.992188 10.335938 -15.039062 10.203125 -15.09375 C 9.617188 -15.34375 9.035156 -15.492188 8.453125 -15.546875 C 7.878906 -15.609375 7.195312 -15.546875 6.40625 -15.359375 C 5.769531 -15.210938 5.203125 -14.9375 4.703125 -14.53125 C 4.210938 -14.132812 3.804688 -13.660156 3.484375 -13.109375 C 3.171875 -12.554688 2.96875 -11.945312 2.875 -11.28125 C 2.789062 -10.625 2.832031 -9.945312 3 -9.25 L 3 -9.21875 C 3.175781 -8.488281 3.457031 -7.835938 3.84375 -7.265625 C 4.226562 -6.703125 4.695312 -6.238281 5.25 -5.875 C 5.800781 -5.519531 6.398438 -5.289062 7.046875 -5.1875 C 7.703125 -5.082031 8.378906 -5.113281 9.078125 -5.28125 C 10.421875 -5.601562 11.453125 -6.1875 12.171875 -7.03125 L 11.625 -9.328125 L 9.25 -8.765625 C 8.820312 -8.660156 8.425781 -8.71875 8.0625 -8.9375 C 7.695312 -9.15625 7.460938 -9.476562 7.359375 -9.90625 C 7.253906 -10.332031 7.316406 -10.726562 7.546875 -11.09375 C 7.773438 -11.46875 8.101562 -11.707031 8.53125 -11.8125 L 12.5625 -12.765625 C 13.0625 -12.890625 13.523438 -12.820312 13.953125 -12.5625 C 14.378906 -12.300781 14.648438 -11.929688 14.765625 -11.453125 L 15.6875 -7.546875 C 15.925781 -6.546875 15.695312 -5.695312 15 -5 C 14.425781 -4.425781 13.707031 -3.859375 12.84375 -3.296875 C 11.976562 -2.734375 10.945312 -2.3125 9.75 -2.03125 C 8.488281 -1.726562 7.289062 -1.660156 6.15625 -1.828125 C 5.019531 -1.992188 3.992188 -2.359375 3.078125 -2.921875 C 2.171875 -3.484375 1.382812 -4.21875 0.71875 -5.125 C 0.0625 -6.039062 -0.40625 -7.097656 -0.6875 -8.296875 L -0.703125 -8.34375 C -0.972656 -9.488281 -1.015625 -10.613281 -0.828125 -11.71875 C -0.648438 -12.820312 -0.28125 -13.835938 0.28125 -14.765625 C 0.851562 -15.703125 1.601562 -16.515625 2.53125 -17.203125 C 3.46875 -17.898438 4.539062 -18.390625 5.75 -18.671875 Z M 5.75 -18.671875 "/></g></g></g><g fill="#41b6e6" fill-opacity="1"><g transform="translate(238.143233, 340.796173)"><g><path d="M 3.09375 -19.359375 C 4.28125 -19.835938 5.453125 -20.0625 6.609375 -20.03125 C 7.765625 -20.007812 8.847656 -19.789062 9.859375 -19.375 C 10.867188 -18.96875 11.765625 -18.363281 12.546875 -17.5625 C 13.335938 -16.769531 13.953125 -15.820312 14.390625 -14.71875 L 14.40625 -14.671875 C 14.84375 -13.578125 15.046875 -12.46875 15.015625 -11.34375 C 14.992188 -10.21875 14.765625 -9.148438 14.328125 -8.140625 C 13.898438 -7.128906 13.269531 -6.210938 12.4375 -5.390625 C 11.601562 -4.578125 10.59375 -3.929688 9.40625 -3.453125 C 8.226562 -2.984375 7.054688 -2.753906 5.890625 -2.765625 C 4.734375 -2.785156 3.644531 -3.007812 2.625 -3.4375 C 1.613281 -3.863281 0.71875 -4.472656 -0.0625 -5.265625 C -0.84375 -6.054688 -1.453125 -7 -1.890625 -8.09375 L -1.921875 -8.140625 C -2.359375 -9.242188 -2.5625 -10.351562 -2.53125 -11.46875 C -2.5 -12.59375 -2.265625 -13.660156 -1.828125 -14.671875 C -1.398438 -15.679688 -0.769531 -16.597656 0.0625 -17.421875 C 0.90625 -18.242188 1.914062 -18.890625 3.09375 -19.359375 Z M 8.203125 -6.59375 C 8.890625 -6.875 9.460938 -7.25 9.921875 -7.71875 C 10.390625 -8.1875 10.738281 -8.722656 10.96875 -9.328125 C 11.195312 -9.929688 11.304688 -10.5625 11.296875 -11.21875 C 11.296875 -11.882812 11.164062 -12.546875 10.90625 -13.203125 L 10.875 -13.25 C 10.613281 -13.90625 10.253906 -14.484375 9.796875 -14.984375 C 9.335938 -15.484375 8.8125 -15.867188 8.21875 -16.140625 C 7.625 -16.410156 6.992188 -16.5625 6.328125 -16.59375 C 5.660156 -16.625 4.984375 -16.5 4.296875 -16.21875 C 3.628906 -15.945312 3.0625 -15.570312 2.59375 -15.09375 C 2.125 -14.625 1.773438 -14.085938 1.546875 -13.484375 C 1.316406 -12.878906 1.203125 -12.242188 1.203125 -11.578125 C 1.210938 -10.910156 1.347656 -10.25 1.609375 -9.59375 L 1.625 -9.546875 C 1.894531 -8.890625 2.257812 -8.3125 2.71875 -7.8125 C 3.175781 -7.320312 3.695312 -6.941406 4.28125 -6.671875 C 4.875 -6.398438 5.507812 -6.253906 6.1875 -6.234375 C 6.863281 -6.210938 7.535156 -6.332031 8.203125 -6.59375 Z M 8.203125 -6.59375 "/></g></g></g><g clip-path="url(#f11011d16a)"><g clip-path="url(#692d45ba69)"><g clip-path="url(#4a3e412e4f)"><path fill="#e4002b" d="M 66.988281 261.632812 L 71.261719 274.109375 L 83.417969 268.824219 L 83.535156 268.984375 L 74.882812 278.980469 L 85.65625 286.753906 L 85.574219 286.929688 L 72.5 284.5 L 71.160156 297.65625 L 70.988281 297.667969 L 66.535156 285.195312 L 54.4375 290.617188 L 54.320312 290.457031 L 62.929688 280.371094 L 52.3125 272.546875 L 52.371094 272.386719 L 65.371094 274.90625 L 66.789062 261.660156 Z M 66.988281 261.632812 " fill-opacity="1" fill-rule="nonzero"/></g></g></g><g clip-path="url(#390e1c2716)"><g clip-path="url(#13a75de305)"><g clip-path="url(#07a6c231a9)"><path fill="#e4002b" d="M 91.605469 293.398438 L 99.507812 303.953125 L 109.449219 295.183594 L 109.609375 295.296875 L 104.453125 307.472656 L 117.097656 311.550781 L 117.074219 311.742188 L 103.886719 313.457031 L 106.660156 326.386719 L 106.503906 326.449219 L 98.425781 315.957031 L 88.582031 324.835938 L 88.421875 324.722656 L 93.507812 312.472656 L 81 308.296875 L 81.007812 308.128906 L 94.148438 306.527344 L 91.421875 293.484375 Z M 91.605469 293.398438 " fill-opacity="1" fill-rule="nonzero"/></g></g></g><g clip-path="url(#a542b90ac2)"><g clip-path="url(#0362079418)"><g clip-path="url(#54e6602cf5)"><path fill="#e4002b" d="M 256.285156 313.417969 L 268.777344 309.195312 L 263.542969 297.019531 L 263.703125 296.902344 L 273.664062 305.59375 L 281.480469 294.851562 L 281.65625 294.933594 L 279.171875 308 L 292.324219 309.390625 L 292.335938 309.5625 L 279.847656 313.96875 L 285.21875 326.085938 L 285.058594 326.203125 L 275.003906 317.554688 L 267.140625 328.140625 L 266.980469 328.078125 L 269.554688 315.089844 L 256.3125 313.621094 Z M 256.285156 313.417969 " fill-opacity="1" fill-rule="nonzero"/></g></g></g><g clip-path="url(#d4b6ae3036)"><g clip-path="url(#adf7b2f793)"><g clip-path="url(#3de95875b3)"><path fill="#e4002b" d="M 288.34375 287.234375 L 299.65625 280.457031 L 291.957031 269.667969 L 292.085938 269.519531 L 303.667969 275.902344 L 309.023438 263.746094 L 309.214844 263.789062 L 309.558594 277.082031 L 322.707031 275.65625 L 322.753906 275.820312 L 311.484375 282.773438 L 319.304688 293.476562 L 319.175781 293.625 L 307.515625 287.304688 L 302.074219 299.316406 L 301.902344 299.292969 L 301.664062 286.054688 L 288.410156 287.425781 Z M 288.34375 287.234375 " fill-opacity="1" fill-rule="nonzero"/></g></g></g></svg>