<svg aria-hidden="true" style="position: absolute; width: 0; height: 0; overflow: hidden;" version="1.1" xmlns="http://www.w3.org/2000/svg" xmlns:xlink="http://www.w3.org/1999/xlink">
<defs>
<symbol id="icon-app-settings" viewBox="0 0 32 32">
<path fill="#70c1f9" style="fill: var(--color1, #70c1f9)" d="M16.052 14.783l-1.942-0.514c-0.099-0.325-0.234-0.645-0.392-0.946l1.014-1.731c0.063-0.113 0.050-0.252-0.045-0.347l-1.325-1.325c-0.095-0.095-0.239-0.117-0.352-0.050l-1.735 1.014-0.162-0.081c-0.153-0.077-0.311-0.144-0.473-0.203-0.104-0.041-0.203-0.072-0.307-0.113l-0.509-1.938c-0.036-0.126-0.149-0.212-0.279-0.212h-1.879c-0.131 0-0.248 0.086-0.279 0.212l-0.009 0.027-0.054 0.212-0.081 0.324-0.365 1.375c-0.329 0.108-0.645 0.239-0.946 0.397l-1.731-1.014c-0.113-0.068-0.257-0.045-0.352 0.050l-1.325 1.325c-0.095 0.095-0.108 0.234-0.045 0.347l0.915 1.573 0.005 0.009 0.090 0.149c-0.009 0.018-0.018 0.031-0.023 0.050-0.149 0.289-0.27 0.59-0.365 0.901l-1.942 0.509c-0.126 0.032-0.216 0.144-0.216 0.275v1.875c0 0.14 0.090 0.248 0.216 0.279l1.942 0.514c0.099 0.324 0.23 0.644 0.392 0.942l-1.014 1.735c-0.063 0.113-0.050 0.257 0.045 0.347l1.325 1.329c0.095 0.090 0.239 0.113 0.352 0.045l1.731-1.014c0.054 0.027 0.108 0.059 0.162 0.081 0.158 0.077 0.315 0.144 0.478 0.207 0.099 0.036 0.203 0.072 0.307 0.104l0.509 1.947c0.032 0.126 0.149 0.212 0.279 0.212h1.879c0.131 0 0.243-0.086 0.279-0.212l0.509-1.947c0.329-0.104 0.645-0.234 0.942-0.392l0.005 0.005 0.243 0.144 0.149 0.086 0.933 0.541 0.406 0.239c0.032 0.018 0.068 0.032 0.104 0.041 0.081 0.009 0.167-0.018 0.23-0.072 0.009-0.005 0.013-0.009 0.018-0.014l1.325-1.329c0.095-0.090 0.108-0.234 0.045-0.347l-0.919-1.568-0.095-0.167c0.009-0.018 0.018-0.031 0.023-0.049 0.149-0.284 0.275-0.586 0.37-0.892l1.942-0.514c0.126-0.031 0.216-0.14 0.216-0.279v-1.875c0-0.131-0.090-0.243-0.216-0.275z"></path>
<path fill="#4f5d99" style="fill: var(--color2, #4f5d99)" d="M12.137 15.997c0 1.952-1.583 3.535-3.535 3.535s-3.535-1.583-3.535-3.535c0-1.952 1.583-3.535 3.535-3.535s3.535 1.583 3.535 3.535z"></path>
<path fill="#fff" style="fill: var(--color3, #fff)" d="M11.376 15.997c0 1.532-1.242 2.773-2.773 2.773s-2.773-1.242-2.773-2.773c0-1.532 1.242-2.773 2.773-2.773s2.773 1.242 2.773 2.773z"></path>
<path fill="#4f5d99" style="fill: var(--color2, #4f5d99)" d="M26.228 5.012v21.975c0 1.154-0.933 2.082-2.082 2.082h-13.459c-1.149 0-2.082-0.929-2.082-2.082v-21.975c0-1.149 0.933-2.082 2.082-2.082h13.459c1.149 0 2.082 0.933 2.082 2.082z"></path>
<path fill="#e9e9ff" style="fill: var(--color4, #e9e9ff)" d="M24.771 5.427v21.144c0 0.351-0.176 0.662-0.445 0.85-0.008 0.004-0.016 0.012-0.025 0.016-0.163 0.114-0.359 0.176-0.572 0.176h-12.629c-0.572 0-1.042-0.47-1.042-1.041v-21.144c0-0.572 0.47-1.041 1.042-1.041h5.040c0.18 0 0.327 0.147 0.327 0.327 0 0.372 0.2 0.731 0.519 0.894 0.016 0.008 0.029 0.016 0.045 0.020 0.057 0.029 0.114 0.049 0.176 0.061 0.070 0.016 0.139 0.025 0.208 0.025s0.139-0.008 0.208-0.025c0.445-0.090 0.739-0.523 0.739-0.976 0-0.065 0.020-0.127 0.057-0.18v-0.004c0.008-0.012 0.016-0.020 0.029-0.033 0.057-0.065 0.147-0.11 0.241-0.11h5.040c0.572 0 1.041 0.47 1.041 1.041z"></path>
<path fill="#cfcfff" style="fill: var(--color5, #cfcfff)" d="M17.91 21.625v0.391c0 0.101-0.079 0.18-0.18 0.18h-5.478c-0.097 0-0.18-0.079-0.18-0.18v-0.391c0-0.097 0.083-0.18 0.18-0.18h5.478c0.101 0 0.18 0.082 0.18 0.18z"></path>
<path fill="#cfcfff" style="fill: var(--color5, #cfcfff)" d="M22.759 21.625v0.391c0 0.101-0.079 0.18-0.18 0.18h-3.502c-0.097 0-0.18-0.079-0.18-0.18v-0.391c0-0.097 0.083-0.18 0.18-0.18h3.502c0.101 0 0.18 0.082 0.18 0.18z"></path>
<path fill="#7bd681" style="fill: var(--color6, #7bd681)" d="M20.31 24.293v1.617c0 0.247-0.201 0.448-0.448 0.448h-4.891c-0.247 0-0.448-0.201-0.448-0.448v-1.617c0-0.247 0.201-0.448 0.448-0.448h4.891c0.247 0 0.448 0.201 0.448 0.448z"></path>
<path fill="#28892d" style="fill: var(--color7, #28892d)" d="M19.192 24.936v0.334c0 0.090-0.073 0.163-0.163 0.163h-3.226c-0.090 0-0.163-0.073-0.163-0.163v-0.334c0-0.090 0.073-0.163 0.163-0.163h3.226c0.090 0 0.163 0.073 0.163 0.163z"></path>
<path fill="#ed524e" style="fill: var(--color8, #ed524e)" d="M14.786 7.357v3.025c0 0.154-0.126 0.28-0.28 0.28h-3.029c-0.154 0-0.277-0.126-0.277-0.28v-3.025c0-0.154 0.122-0.28 0.277-0.28h3.029c0.154 0 0.28 0.126 0.28 0.28z"></path>
<path fill="#fdc72e" style="fill: var(--color9, #fdc72e)" d="M19.208 7.357v3.025c0 0.154-0.126 0.28-0.28 0.28h-3.029c-0.154 0-0.277-0.126-0.277-0.28v-3.025c0-0.154 0.122-0.28 0.277-0.28h3.029c0.154 0 0.28 0.126 0.28 0.28z"></path>
<path fill="#70c1f9" style="fill: var(--color1, #70c1f9)" d="M23.63 7.357v3.025c0 0.154-0.126 0.28-0.28 0.28h-3.029c-0.154 0-0.276-0.126-0.276-0.28v-3.025c0-0.154 0.122-0.28 0.276-0.28h3.029c0.154 0 0.28 0.126 0.28 0.28z"></path>
<path fill="#7bd681" style="fill: var(--color6, #7bd681)" d="M19.208 11.75v3.025c0 0.154-0.126 0.28-0.28 0.28h-3.029c-0.154 0-0.277-0.126-0.277-0.28v-3.025c0-0.154 0.122-0.28 0.277-0.28h3.029c0.154 0 0.28 0.126 0.28 0.28z"></path>
<path fill="#cfcfff" style="fill: var(--color5, #cfcfff)" d="M23.63 11.75v3.025c0 0.154-0.126 0.28-0.28 0.28h-3.029c-0.154 0-0.276-0.126-0.276-0.28v-3.025c0-0.154 0.122-0.28 0.276-0.28h3.029c0.154 0 0.28 0.126 0.28 0.28z"></path>
<path fill="#fdc72e" style="fill: var(--color9, #fdc72e)" d="M19.208 16.144v3.025c0 0.154-0.126 0.28-0.28 0.28h-3.029c-0.154 0-0.277-0.126-0.277-0.28v-3.025c0-0.154 0.122-0.28 0.277-0.28h3.029c0.154 0 0.28 0.126 0.28 0.28z"></path>
<path fill="#ed524e" style="fill: var(--color8, #ed524e)" d="M23.63 16.144v3.025c0 0.154-0.126 0.28-0.28 0.28h-3.029c-0.154 0-0.276-0.126-0.276-0.28v-3.025c0-0.154 0.122-0.28 0.276-0.28h3.029c0.154 0 0.28 0.126 0.28 0.28z"></path>
<path fill="#fff" style="fill: var(--color3, #fff)" opacity="0.2" d="M22.737 27.613h-6.314l-6.363-19.102v-3.084c0-0.572 0.47-1.041 1.042-1.041h3.892z"></path>
<path fill="#fff" style="fill: var(--color3, #fff)" opacity="0.2" d="M24.771 23.476v3.096c0 0.351-0.176 0.662-0.445 0.85-0.008 0.004-0.016 0.012-0.025 0.016l-7.27-21.81c0.057 0.029 0.114 0.049 0.176 0.061 0.070 0.016 0.139 0.025 0.208 0.025s0.139-0.008 0.208-0.025c0.445-0.090 0.739-0.523 0.739-0.976 0-0.065 0.020-0.127 0.057-0.18v-0.004c0.008-0.012 0.016-0.020 0.029-0.033z"></path>
<path fill="#ed524e" style="fill: var(--color8, #ed524e)" d="M30.922 23.473l-1.224-0.324c-0.063-0.205-0.148-0.406-0.247-0.597l0.639-1.091c0.040-0.071 0.031-0.159-0.028-0.219l-0.835-0.835c-0.060-0.060-0.151-0.074-0.222-0.031l-1.094 0.639-0.102-0.051c-0.097-0.048-0.196-0.091-0.298-0.128-0.065-0.026-0.128-0.046-0.193-0.071l-0.321-1.222c-0.023-0.079-0.094-0.133-0.176-0.133h-1.185c-0.082 0-0.156 0.054-0.176 0.133l-0.006 0.017-0.034 0.134-0.051 0.204-0.23 0.866c-0.207 0.068-0.406 0.151-0.597 0.25l-1.091-0.639c-0.071-0.043-0.162-0.028-0.222 0.031l-0.835 0.835c-0.060 0.060-0.068 0.148-0.028 0.219l0.577 0.991 0.003 0.006 0.057 0.094c-0.006 0.011-0.011 0.020-0.014 0.031-0.094 0.182-0.17 0.372-0.23 0.568l-1.224 0.321c-0.080 0.020-0.136 0.091-0.136 0.173v1.182c0 0.088 0.057 0.156 0.136 0.176l1.224 0.324c0.062 0.204 0.145 0.406 0.247 0.594l-0.639 1.094c-0.040 0.071-0.031 0.162 0.028 0.219l0.835 0.838c0.060 0.057 0.151 0.071 0.222 0.028l1.091-0.639c0.034 0.017 0.068 0.037 0.102 0.051 0.099 0.048 0.199 0.091 0.301 0.131 0.063 0.023 0.128 0.045 0.193 0.065l0.321 1.227c0.020 0.080 0.094 0.134 0.176 0.134h1.185c0.082 0 0.153-0.054 0.176-0.134l0.321-1.227c0.207-0.065 0.406-0.148 0.594-0.247l0.003 0.003 0.153 0.091 0.094 0.054 0.588 0.341 0.256 0.151c0.020 0.011 0.043 0.020 0.065 0.026 0.051 0.006 0.105-0.011 0.145-0.045 0.006-0.003 0.008-0.006 0.011-0.009l0.835-0.838c0.060-0.057 0.068-0.148 0.028-0.219l-0.579-0.989-0.060-0.105c0.006-0.011 0.011-0.020 0.014-0.031 0.094-0.179 0.173-0.369 0.233-0.562l1.224-0.324c0.080-0.020 0.136-0.088 0.136-0.176v-1.182c0-0.082-0.057-0.153-0.136-0.173z"></path>
<path fill="#4f5d99" style="fill: var(--color2, #4f5d99)" d="M28.455 24.239c0 1.231-0.998 2.228-2.228 2.228s-2.228-0.998-2.228-2.228c0-1.231 0.998-2.228 2.228-2.228s2.228 0.998 2.228 2.228z"></path>
<path fill="#fff" style="fill: var(--color3, #fff)" d="M27.975 24.239c0 0.966-0.783 1.748-1.748 1.748s-1.748-0.783-1.748-1.748c0-0.966 0.783-1.748 1.748-1.748s1.748 0.783 1.748 1.748z"></path>
</symbol>
<symbol id="icon-shield" viewBox="0 0 32 32">
<path fill="#ffd15c" style="fill: var(--color11, #ffd15c)" d="M29.42 5.819v8.94c0 8.142-5.529 15.241-13.427 17.24-7.885-1.993-13.414-9.099-13.414-17.24v-8.94c6.209-0.699 9.725-3.061 13.42-5.819 3.695 2.758 7.212 5.12 13.42 5.819z"></path>
<path fill="#f8b64c" style="fill: var(--color12, #f8b64c)" d="M16 28.47c-5.945-1.887-10.029-7.403-10.029-13.71v-6.057c4.177-0.91 7.245-2.593 10.029-4.513 2.844 1.973 5.852 3.622 10.029 4.52v6.057c0 6.301-4.084 11.817-10.029 13.704z"></path>
<path fill="#fff" style="fill: var(--color13, #fff)" d="M13.777 21.47l-3.306-3.306 1.676-1.682 1.63 1.623 6.077-6.070 1.676 1.676z"></path>
</symbol>
<symbol id="icon-mentor" viewBox="0 0 32 32">
<path fill="#e6b17c" style="fill: var(--color14, #e6b17c)" d="M11.075 19.898c-2.321-0.284-4.125 1.035-7.476 1.080l-1.486 0.009-0.009 7.252 1.495 0.006c3.502-0.946 7.175 0.193 10.258 0.535 1.719 0.191 2.451 0.25 4.643-0.691l10.537-4.575c0.827-0.387 1.771-0.901 2.166-1.208 0.62-1.427-0.58-2.814-4.15-1.481-2.356 0.88-5.309 1.752-6.651 2 0.103-0.23 0.151-0.495 0.134-0.8-0.049-0.875-0.742-1.483-2.293-1.524-2.469-0.066-4.687-0.3-7.169-0.604z"></path>
<path fill="#f9c795" style="fill: var(--color15, #f9c795)" d="M11.075 19.898c-2.321-0.284-4.125 1.035-7.476 1.080l-1.486 0.009-0.008 6.481 1.494 0.005c3.502-0.946 7.175 0.193 10.258 0.535 1.719 0.191 2.451 0.25 4.643-0.691l10.537-4.575c0.707-0.331 1.499-0.755 1.961-1.062 0.054-0.036 0.229-0.152 0.35-0.236-0.129-1.024-1.47-1.673-4.296-0.618-2.356 0.88-5.309 1.752-6.651 2 0.103-0.23 0.151-0.495 0.134-0.8-0.049-0.875-0.742-1.483-2.293-1.524-2.469-0.066-4.687-0.3-7.169-0.604z"></path>
<path fill="#e6b17c" style="fill: var(--color14, #e6b17c)" d="M21.197 22.654c-0.303 0.073-0.571 0.132-0.794 0.173l0-0c-0.457 0.779-1.763 1.055-3.122 1.132-1.093 0.062-2.228-0.007-3.038-0.056-0.248-0.015-0.465-0.028-0.667-0.036-0.002-0-0.004-0-0.006-0-0.185 0-0.335 0.15-0.335 0.335 0 0.179 0.14 0.325 0.317 0.335l0.001 0c0.159 0.006 0.388 0.020 0.651 0.036 0.825 0.050 1.982 0.12 3.114 0.056 1.828-0.103 3.572-0.557 3.88-1.974z"></path>
<path fill="#2a93fc" style="fill: var(--color16, #2a93fc)" d="M1.212 20.391h1.817c0.315 0 0.571 0.256 0.571 0.571v7.45c0 0.315-0.256 0.571-0.571 0.571h-1.817c-0.315 0-0.571-0.256-0.571-0.571v-7.45c0-0.315 0.256-0.571 0.571-0.571z"></path>
<path fill="#43a2ff" style="fill: var(--color17, #43a2ff)" d="M1.985 20.391h1.044c0.315 0 0.571 0.256 0.571 0.571v7.45c0 0.315-0.256 0.571-0.571 0.571h-1.044c-0.315 0-0.571-0.256-0.571-0.571v-7.45c0-0.315 0.256-0.571 0.571-0.571z"></path>
<path fill="#2a93fc" style="fill: var(--color16, #2a93fc)" d="M27.315 7.676h-8.316c-0.871 0-1.584 0.713-1.584 1.584v6.138c0 0.871 0.713 1.584 1.584 1.584h3.444l2.673 2.673v-2.673h2.199c0.871 0 1.584-0.713 1.584-1.584v-6.138c0-0.871-0.713-1.584-1.584-1.584z"></path>
<path fill="#43a2ff" style="fill: var(--color17, #43a2ff)" d="M27.315 7.676h-7.491c-0.871 0-1.584 0.713-1.584 1.584v6.138c0 0.871 0.713 1.584 1.584 1.584h3.444l1.848 1.848v-1.848h2.199c0.871 0 1.584-0.713 1.584-1.584v-6.138c0-0.871-0.713-1.584-1.584-1.584z"></path>
<path fill="#fff" style="fill: var(--color20, #fff)" d="M27.064 14.035c0.173 0 0.313 0.14 0.313 0.313s-0.14 0.313-0.313 0.313v0h-4.232c-0.173 0-0.313-0.14-0.313-0.313s0.14-0.313 0.313-0.313v0zM27.064 12.017c0.173 0 0.313 0.14 0.313 0.313s-0.14 0.313-0.313 0.313v0h-4.346c-0.173 0-0.313-0.14-0.313-0.313s0.14-0.313 0.313-0.313v0zM27.064 9.998c0.173 0 0.313 0.14 0.313 0.313s-0.14 0.313-0.313 0.313v0h-1.672c-0.173 0-0.313-0.14-0.313-0.313s0.14-0.313 0.313-0.313v0zM23.854 9.998c0.173 0 0.313 0.14 0.313 0.313s-0.14 0.313-0.313 0.313v0h-1.136c-0.173 0-0.313-0.14-0.313-0.313s0.14-0.313 0.313-0.313v0z"></path>
<path fill="#f9ac00" style="fill: var(--color18, #f9ac00)" d="M10.983 3.017h8.316c0.871 0 1.584 0.713 1.584 1.584v6.138c0 0.871-0.713 1.584-1.584 1.584h-3.444l-2.673 2.673v-2.673h-2.199c-0.871 0-1.584-0.713-1.584-1.584v-6.138c0-0.871 0.713-1.584 1.584-1.584z"></path>
<path fill="#fdc72e" style="fill: var(--color19, #fdc72e)" d="M11.808 3.017h7.491c0.871 0 1.584 0.713 1.584 1.584v6.138c0 0.871-0.713 1.584-1.584 1.584h-3.444l-1.848 1.848v-1.848h-2.199c-0.871 0-1.584-0.713-1.584-1.584v-6.138c0-0.871 0.713-1.584 1.584-1.584z"></path>
<path fill="#f9ac00" style="fill: var(--color18, #f9ac00)" d="M15.536 5.083l0.832 1.77 1.941 0.244-1.427 1.338 0.368 1.921-0.395-0.050-1.319-0.894-1.713 0.943-0.395-0.050 0.763-1.871-1.427-1.338 1.941-0.244 0.437-1.82z"></path>
<path fill="#fff" style="fill: var(--color20, #fff)" d="M15.141 5.033l0.832 1.77 1.941 0.244-1.427 1.338 0.368 1.921-1.713-0.943-1.713 0.943 0.368-1.921-1.427-1.338 1.941-0.244z"></path>
</symbol>

<symbol id="icon-not-found" viewBox="0 0 36 32">
<path fill="#778cbc" style="fill: var(--color1, #778cbc)" d="M28.589 21.274h-22.399c-0.023 0-0.050 0-0.077 0-3.306 0-6-2.623-6.113-5.901l-0-0.010c-0-0.022-0-0.047-0-0.073 0-3.265 2.615-5.92 5.865-5.984l0.006-0c0.041-0.001 0.089-0.002 0.138-0.002 0.434 0 0.857 0.049 1.263 0.142l-0.038-0.007h0.007c0.045 0.011 0.096 0.017 0.148 0.017 0.334 0 0.609-0.25 0.649-0.572l0-0.003c0.561-4.933 4.649-8.748 9.654-8.876l0.013-0c0.080-0.007 0.166-0.007 0.246-0.007 0 0 0 0 0.001 0 4.172 0 7.747 2.561 9.237 6.197l0.024 0.067c0.074 0.184 0.223 0.324 0.408 0.384l0.005 0.001c0.064 0.023 0.138 0.037 0.214 0.037 0.023 0 0.045-0.001 0.068-0.003l-0.003 0c0.067-0.007 0.133-0.013 0.199-0.013 0.158-0.013 0.343-0.020 0.529-0.020 0.303 0 0.602 0.019 0.895 0.057l-0.035-0.004c3.636 0.462 6.418 3.536 6.418 7.26 0 4.040-3.275 7.315-7.315 7.315-0.003 0-0.005 0-0.008 0h0z"></path>
<path fill="#98acf8" style="fill: var(--color2, #98acf8)" d="M27.599 21.274h-21.621c-3.272-0.016-5.924-2.645-5.977-5.906l-0-0.005c-0.002-0.053-0.003-0.114-0.003-0.176 0-3.245 2.629-5.877 5.873-5.881h0c0.396 0.005 0.779 0.053 1.146 0.14l-0.036-0.007c0.038 0.009 0.082 0.015 0.126 0.015s0.088-0.005 0.13-0.016l-0.004 0.001h0.007c0.045 0.011 0.096 0.017 0.148 0.017 0.334 0 0.609-0.25 0.649-0.572l0-0.003c0.561-4.933 4.649-8.748 9.654-8.876l0.013-0c3.92 0.203 7.207 2.713 8.541 6.19l0.022 0.066c0.093 0.248 0.328 0.422 0.603 0.422 0.022 0 0.043-0.001 0.064-0.003l-0.003 0c0.226-0.020 0.459-0.033 0.691-0.033q0.239 0 0.479 0.020c0.126 0.007 0.246 0.020 0.366 0.033 3.268 0.491 5.796 3.112 6.141 6.385l0.003 0.031c0.038 0.279 0.060 0.602 0.060 0.93 0 3.938-3.149 7.141-7.066 7.227l-0.008 0z"></path>
<path fill="#778cbc" style="fill: var(--color1, #778cbc)" d="M26.635 16.307c0 0.003 0 0.006 0 0.009 0 1.868-0.617 3.592-1.658 4.979l0.015-0.021h-13.377c-1.026-1.366-1.642-3.090-1.642-4.958 0-0.003 0-0.006 0-0.009v0c-0-0.005-0-0.011-0-0.017 0-0.034 0.002-0.067 0.007-0.1l-0 0.004v-0.067c0.099-4.458 3.687-8.045 8.135-8.144l0.009-0h0.067c0.029-0.004 0.062-0.007 0.096-0.007 0.006 0 0.012 0 0.017 0l-0.001-0c4.601 0 8.331 3.73 8.331 8.331v0z"></path>
<path fill="#214252" style="fill: var(--color3, #214252)" d="M22.756 21.587l0.94-0.94 3.425 3.425-0.94 0.94z"></path>
<path fill="#d2d2d2" style="fill: var(--color4, #d2d2d2)" d="M25.93 15.955c0 4.406-3.572 7.978-7.978 7.978s-7.978-3.572-7.978-7.978v0c-0-0.005-0-0.011-0-0.018 0-0.031 0.003-0.062 0.007-0.092l-0 0.003v-0.066c0.091-4.27 3.529-7.708 7.79-7.799l0.009-0h0.067c0.027-0.004 0.057-0.007 0.089-0.007 0.006 0 0.012 0 0.019 0l-0.001-0c0.001 0 0.001 0 0.002 0 4.405 0 7.976 3.571 7.976 7.976 0 0.001 0 0.001 0 0.002v-0z"></path>
<path fill="#f6f4e6" style="fill: var(--color5, #f6f4e6)" d="M24.946 15.463c-0.008 4.13-3.357 7.475-7.488 7.475-3.995 0-7.26-3.129-7.477-7.070l-0.001-0.019v-0.066c0.091-4.27 3.529-7.708 7.79-7.799l0.009-0h0.067c3.966 0.213 7.101 3.48 7.101 7.48v0z"></path>
<path fill="#778cbc" style="fill: var(--color1, #778cbc)" d="M33.677 31.325l-0.273 0.273c-0.245 0.245-0.585 0.397-0.959 0.397s-0.714-0.152-0.959-0.397l-5.901-5.901c-0.060-0.060-0.097-0.143-0.097-0.235s0.037-0.175 0.097-0.235l1.72-1.721c0.060-0.060 0.143-0.097 0.235-0.097s0.175 0.037 0.235 0.097l5.901 5.901c0.245 0.245 0.397 0.584 0.397 0.959s-0.152 0.713-0.397 0.959v0z"></path>
<path fill="#98acf8" style="fill: var(--color2, #98acf8)" d="M33.092 31.177l-0.224 0.224c-0.21 0.181-0.486 0.292-0.788 0.292-0.362 0-0.687-0.159-0.909-0.411l-0.001-0.001-5.596-5.596c-0.062-0.055-0.101-0.134-0.101-0.223 0-0.074 0.027-0.141 0.072-0.193l-0 0 1.415-1.415c0.052-0.044 0.119-0.071 0.193-0.071 0.089 0 0.169 0.039 0.223 0.101l0 0 5.596 5.596c0.253 0.223 0.412 0.548 0.412 0.91 0 0.302-0.111 0.578-0.293 0.79l0.001-0.002z"></path>
<path fill="#f05454" style="fill: var(--color6, #f05454)" d="M15.292 15.955c0 0.367-0.298 0.665-0.665 0.665s-0.665-0.298-0.665-0.665c0-0.367 0.298-0.665 0.665-0.665s0.665 0.298 0.665 0.665z"></path>
<path fill="#f05454" style="fill: var(--color6, #f05454)" d="M18.616 15.955c0 0.367-0.298 0.665-0.665 0.665s-0.665-0.298-0.665-0.665c0-0.367 0.298-0.665 0.665-0.665s0.665 0.298 0.665 0.665z"></path>
<path fill="#f05454" style="fill: var(--color6, #f05454)" d="M21.941 15.955c0 0.367-0.298 0.665-0.665 0.665s-0.665-0.298-0.665-0.665c0-0.367 0.298-0.665 0.665-0.665s0.665 0.298 0.665 0.665z"></path>
</symbol>

<symbol id="icon-db-error" viewBox="0 0 32 32">
<path fill="#bddbff" style="fill: var(--color1, #bddbff)" d="M24.025 5.921c0 2.633-5.154 4.768-11.511 4.768s-11.511-2.135-11.511-4.768c0-2.633 5.154-4.768 11.511-4.768s11.511 2.135 11.511 4.768z"></path>
<path fill="#9bc9ff" style="fill: var(--color2, #9bc9ff)" d="M24.025 5.921c0 2.633-5.154 4.768-11.511 4.768s-11.511-2.135-11.511-4.768v6.533c0.027 2.624 5.17 4.747 11.511 4.747 6.339 0 11.481-2.122 11.511-4.745z"></path>
<path fill="#57a4ff" style="fill: var(--color3, #57a4ff)" d="M24.025 12.457c-0.030 2.623-5.172 4.745-11.511 4.745-6.341 0-11.484-2.123-11.511-4.747v6.773c0.058 2.563 5.159 4.761 11.511 4.761 6.339 0 11.481-2.122 11.511-4.745z"></path>
<path fill="#2488ff" style="fill: var(--color4, #2488ff)" d="M24.025 19.244c-0.030 2.622-5.172 4.745-11.511 4.745-6.352 0-11.453-2.198-11.511-4.761v6.846c0 2.633 5.154 4.768 11.511 4.768s11.511-2.135 11.511-4.768z"></path>
<path fill="#eceff1" style="fill: var(--color5, #eceff1)" d="M23.38 22.688l0.146 3.724c0.009 0.229 0.197 0.41 0.427 0.41 0.001 0 0.002 0 0.003 0h-0l0.423-0.003c0.227-0.002 0.412-0.181 0.423-0.405l0-0.001 0.183-3.729c0-0.006 0-0.014 0-0.021 0-0.236-0.191-0.427-0.427-0.427-0.002 0-0.003 0-0.005 0h0l-0.753 0.008c-0.234 0.003-0.422 0.193-0.422 0.427 0 0.006 0 0.012 0 0.018l-0-0.001z"></path>
<path fill="#fe646f" style="fill: var(--color6, #fe646f)" d="M24.986 22.684l-0.183 3.729c-0.011 0.226-0.196 0.405-0.423 0.406h-0l-0.423 0.003c-0.001 0-0.002 0-0.003 0-0.23 0-0.418-0.182-0.427-0.409l-0-0.001-0.146-3.724c-0-0.005-0-0.011-0-0.017 0-0.234 0.189-0.424 0.422-0.427h0l0.753-0.008c0.001-0 0.003-0 0.005-0 0.236 0 0.427 0.191 0.427 0.427 0 0.007-0 0.015-0.001 0.022l0-0.001zM23.104 19.207l-5.519 9.407c-0.136 0.226-0.216 0.499-0.216 0.79 0 0.25 0.059 0.486 0.164 0.695l-0.004-0.009c0.231 0.478 0.649 0.757 1.135 0.757h11.038c0.487 0 0.904-0.278 1.135-0.757 0.101-0.2 0.16-0.436 0.16-0.686 0-0.291-0.080-0.564-0.22-0.797l0.004 0.007-5.519-9.407c-0.246-0.419-0.631-0.651-1.079-0.651s-0.833 0.233-1.079 0.651zM24.186 27.829c0.416 0.012 0.748 0.351 0.748 0.768 0 0.425-0.344 0.769-0.769 0.769s-0.769-0.344-0.769-0.768v-0c0.006-0.426 0.352-0.769 0.779-0.769 0.004 0 0.007 0 0.011 0h-0.001z"></path>
<path fill="#eceff1" style="fill: var(--color5, #eceff1)" d="M24.975 28.597c0-0.006 0-0.014 0-0.021 0-0.436-0.354-0.79-0.79-0.79s-0.79 0.354-0.79 0.79c0 0.436 0.354 0.79 0.79 0.79 0 0 0 0 0 0v0c0.003 0 0.007 0 0.010 0 0.427 0 0.773-0.343 0.779-0.768v-0.001z"></path>
</symbol>
</defs>
</svg>
